<?xml version="1.0" encoding="UTF-8" standalone="no"?>
<!DOCTYPE svg PUBLIC "-//W3C//DTD SVG 1.1//EN"
 "http://www.w3.org/Graphics/SVG/1.1/DTD/svg11.dtd">
<!-- Generated by graphviz version 12.2.0 (20241103.1931)
 -->
<!-- Title: WKLib.API.Gamemodes.RegionBuilder Pages: 1 -->
<svg width="154pt" height="115pt"
 viewBox="0.00 0.00 154.00 114.75" xmlns="http://www.w3.org/2000/svg" xmlns:xlink="http://www.w3.org/1999/xlink">
<g id="graph0" class="graph" transform="scale(1 1) rotate(0) translate(4 110.75)">
<title>WKLib.API.Gamemodes.RegionBuilder</title>
<!-- Node1 -->
<g id="Node000001" class="node">
<title>Node1</title>
<g id="a_Node000001"><a xlink:title="A fluent builder class for creating and configuring an M_Region instance &#160;It simplifies the process o...">
<polygon fill="#999999" stroke="none" points="146,-106.75 0,-106.75 0,0 146,0 146,-106.75"/>
<text text-anchor="start" x="4" y="-93.25" font-family="Helvetica,sans-Serif" font-size="10.00">WKLib.API.Gamemodes.Region</text>
<text text-anchor="start" x="58" y="-82" font-family="Helvetica,sans-Serif" font-size="10.00">Builder</text>
<text text-anchor="start" x="71.5" y="-66.75" font-family="Helvetica,sans-Serif" font-size="10.00"> </text>
<text text-anchor="start" x="15.19" y="-51.5" font-family="Helvetica,sans-Serif" font-size="10.00">+</text>
<text text-anchor="start" x="36.38" y="-51.5" font-family="Helvetica,sans-Serif" font-size="10.00">WithName()</text>
<text text-anchor="start" x="15.19" y="-36.25" font-family="Helvetica,sans-Serif" font-size="10.00">+</text>
<text text-anchor="start" x="36.38" y="-36.25" font-family="Helvetica,sans-Serif" font-size="10.00">WithSubregions()</text>
<text text-anchor="start" x="15.19" y="-21" font-family="Helvetica,sans-Serif" font-size="10.00">+</text>
<text text-anchor="start" x="36.38" y="-21" font-family="Helvetica,sans-Serif" font-size="10.00">WithStartingLevel()</text>
<text text-anchor="start" x="15.19" y="-5.75" font-family="Helvetica,sans-Serif" font-size="10.00">+</text>
<text text-anchor="start" x="36.38" y="-5.75" font-family="Helvetica,sans-Serif" font-size="10.00">Build()</text>
<polygon fill="#666666" stroke="#666666" points="0,-78.25 0,-78.25 146,-78.25 146,-78.25 0,-78.25"/>
<polygon fill="#666666" stroke="#666666" points="0,-63 0,-63 146,-63 146,-63 0,-63"/>
<polygon fill="none" stroke="#666666" points="0,0 0,-106.75 146,-106.75 146,0 0,0"/>
</a>
</g>
</g>
</g>
</svg>
