<?xml version="1.0" encoding="UTF-8" standalone="no"?>
<!DOCTYPE svg PUBLIC "-//W3C//DTD SVG 1.1//EN"
 "http://www.w3.org/Graphics/SVG/1.1/DTD/svg11.dtd">
<!-- Generated by graphviz version 12.2.0 (20241103.1931)
 -->
<!-- Title: WKLib.API.WKLibAPI Pages: 1 -->
<svg width="112pt" height="226pt"
 viewBox="0.00 0.00 112.00 225.50" xmlns="http://www.w3.org/2000/svg" xmlns:xlink="http://www.w3.org/1999/xlink">
<g id="graph0" class="graph" transform="scale(1 1) rotate(0) translate(4 221.5)">
<title>WKLib.API.WKLibAPI</title>
<!-- Node1 -->
<g id="Node000001" class="node">
<title>Node1</title>
<g id="a_Node000001"><a xlink:title=" ">
<polygon fill="#999999" stroke="none" points="104,-217.5 0,-217.5 0,0 104,0 104,-217.5"/>
<text text-anchor="start" x="4" y="-204" font-family="Helvetica,sans-Serif" font-size="10.00">WKLib.API.WKLibAPI</text>
<text text-anchor="start" x="7.12" y="-188.75" font-family="Helvetica,sans-Serif" font-size="10.00">+</text>
<text text-anchor="start" x="20.25" y="-188.75" font-family="Helvetica,sans-Serif" font-size="10.00">DisplayName</text>
<text text-anchor="start" x="7.12" y="-173.5" font-family="Helvetica,sans-Serif" font-size="10.00">+</text>
<text text-anchor="start" x="20.25" y="-173.5" font-family="Helvetica,sans-Serif" font-size="10.00">GUID</text>
<text text-anchor="start" x="7.12" y="-158.25" font-family="Helvetica,sans-Serif" font-size="10.00">+</text>
<text text-anchor="start" x="20.25" y="-158.25" font-family="Helvetica,sans-Serif" font-size="10.00">Windows</text>
<text text-anchor="start" x="7.12" y="-143" font-family="Helvetica,sans-Serif" font-size="10.00">+</text>
<text text-anchor="start" x="20.25" y="-143" font-family="Helvetica,sans-Serif" font-size="10.00">ModTab</text>
<text text-anchor="start" x="7.12" y="-127.75" font-family="Helvetica,sans-Serif" font-size="10.00">+</text>
<text text-anchor="start" x="20.25" y="-127.75" font-family="Helvetica,sans-Serif" font-size="10.00">ConfigFolder</text>
<text text-anchor="start" x="7.12" y="-112.5" font-family="Helvetica,sans-Serif" font-size="10.00">+</text>
<text text-anchor="start" x="20.25" y="-112.5" font-family="Helvetica,sans-Serif" font-size="10.00">DefaultConfigFile</text>
<text text-anchor="start" x="7.12" y="-97.25" font-family="Helvetica,sans-Serif" font-size="10.00">+</text>
<text text-anchor="start" x="20.25" y="-97.25" font-family="Helvetica,sans-Serif" font-size="10.00">AssetService</text>
<text text-anchor="start" x="7.5" y="-82" font-family="Helvetica,sans-Serif" font-size="10.00">~</text>
<text text-anchor="start" x="20.25" y="-82" font-family="Helvetica,sans-Serif" font-size="10.00">internalAPIs</text>
<text text-anchor="start" x="7.12" y="-66.75" font-family="Helvetica,sans-Serif" font-size="10.00">+</text>
<text text-anchor="start" x="20.25" y="-66.75" font-family="Helvetica,sans-Serif" font-size="10.00">AddWindow()</text>
<text text-anchor="start" x="7.12" y="-51.5" font-family="Helvetica,sans-Serif" font-size="10.00">+</text>
<text text-anchor="start" x="20.25" y="-51.5" font-family="Helvetica,sans-Serif" font-size="10.00">AddToModList()</text>
<text text-anchor="start" x="7.12" y="-36.25" font-family="Helvetica,sans-Serif" font-size="10.00">+</text>
<text text-anchor="start" x="20.25" y="-36.25" font-family="Helvetica,sans-Serif" font-size="10.00">Destroy()</text>
<text text-anchor="start" x="7.12" y="-21" font-family="Helvetica,sans-Serif" font-size="10.00">+</text>
<text text-anchor="start" x="20.25" y="-21" font-family="Helvetica,sans-Serif" font-size="10.00">Create()</text>
<text text-anchor="start" x="7.12" y="-5.75" font-family="Helvetica,sans-Serif" font-size="10.00">+</text>
<text text-anchor="start" x="20.25" y="-5.75" font-family="Helvetica,sans-Serif" font-size="10.00">Create()</text>
<polygon fill="#666666" stroke="#666666" points="0,-200.25 0,-200.25 104,-200.25 104,-200.25 0,-200.25"/>
<polygon fill="#666666" stroke="#666666" points="0,-78.25 0,-78.25 18.25,-78.25 18.25,-78.25 0,-78.25"/>
<polygon fill="#666666" stroke="#666666" points="18.25,-78.25 18.25,-78.25 104,-78.25 104,-78.25 18.25,-78.25"/>
<polygon fill="none" stroke="#666666" points="0,0 0,-217.5 104,-217.5 104,0 0,0"/>
</a>
</g>
</g>
</g>
</svg>
