<?xml version="1.0" encoding="UTF-8" standalone="no"?>
<!DOCTYPE svg PUBLIC "-//W3C//DTD SVG 1.1//EN"
 "http://www.w3.org/Graphics/SVG/1.1/DTD/svg11.dtd">
<!-- Generated by graphviz version 12.2.0 (20241103.1931)
 -->
<!-- Title: WKLib.API.UI.KeyBind Pages: 1 -->
<svg width="186pt" height="281pt"
 viewBox="0.00 0.00 186.00 280.75" xmlns="http://www.w3.org/2000/svg" xmlns:xlink="http://www.w3.org/1999/xlink">

<svg id="main" version="1.1" xmlns="http://www.w3.org/2000/svg" xmlns:xlink="http://www.w3.org/1999/xlink" xml:space="preserve">

<style type="text/css"><![CDATA[
.node, .edge {opacity: 0.7;}
.node.selected, .edge.selected {opacity: 1;}
.edge:hover path { stroke: red; }
.edge:hover polygon { stroke: red; fill: red; }
]]></style>
<script type="application/ecmascript" xlink:href="svg.min.js"/>
<svg id="graph" class="graph">
<g id="graph0" class="graph" transform="scale(1 1) rotate(0) translate(4 276.75)">
<title>WKLib.API.UI.KeyBind</title>
<!-- Node1 -->
<g id="Node000001" class="node">
<title>Node1</title>
<g id="a_Node000001"><a xlink:title=" ">
<polygon fill="#999999" stroke="none" points="155.62,-187 48.62,-187 48.62,0 155.62,0 155.62,-187"/>
<text text-anchor="start" x="52.62" y="-173.5" font-family="Helvetica,sans-Serif" font-size="10.00">WKLib.API.UI.KeyBind</text>
<text text-anchor="start" x="53.69" y="-158.25" font-family="Helvetica,sans-Serif" font-size="10.00">+</text>
<text text-anchor="start" x="64.75" y="-158.25" font-family="Helvetica,sans-Serif" font-size="10.00">KeyCode</text>
<text text-anchor="start" x="53.69" y="-143" font-family="Helvetica,sans-Serif" font-size="10.00">+</text>
<text text-anchor="start" x="64.75" y="-143" font-family="Helvetica,sans-Serif" font-size="10.00">KeyBind()</text>
<text text-anchor="start" x="53.69" y="-127.75" font-family="Helvetica,sans-Serif" font-size="10.00">+</text>
<text text-anchor="start" x="64.75" y="-127.75" font-family="Helvetica,sans-Serif" font-size="10.00">KeyBind()</text>
<text text-anchor="start" x="53.69" y="-112.5" font-family="Helvetica,sans-Serif" font-size="10.00">+</text>
<text text-anchor="start" x="64.75" y="-112.5" font-family="Helvetica,sans-Serif" font-size="10.00">IsPressed()</text>
<text text-anchor="start" x="53.69" y="-97.25" font-family="Helvetica,sans-Serif" font-size="10.00">+</text>
<text text-anchor="start" x="64.75" y="-97.25" font-family="Helvetica,sans-Serif" font-size="10.00">IsDown()</text>
<text text-anchor="start" x="53.69" y="-82" font-family="Helvetica,sans-Serif" font-size="10.00">+</text>
<text text-anchor="start" x="64.75" y="-82" font-family="Helvetica,sans-Serif" font-size="10.00">IsSet()</text>
<text text-anchor="start" x="53.69" y="-66.75" font-family="Helvetica,sans-Serif" font-size="10.00">+</text>
<text text-anchor="start" x="64.75" y="-66.75" font-family="Helvetica,sans-Serif" font-size="10.00">Clone()</text>
<text text-anchor="start" x="53.69" y="-51.5" font-family="Helvetica,sans-Serif" font-size="10.00">+</text>
<text text-anchor="start" x="64.75" y="-51.5" font-family="Helvetica,sans-Serif" font-size="10.00">GetHashCode()</text>
<text text-anchor="start" x="53.69" y="-36.25" font-family="Helvetica,sans-Serif" font-size="10.00">+</text>
<text text-anchor="start" x="64.75" y="-36.25" font-family="Helvetica,sans-Serif" font-size="10.00">Equals()</text>
<text text-anchor="start" x="53.69" y="-21" font-family="Helvetica,sans-Serif" font-size="10.00">+</text>
<text text-anchor="start" x="64.75" y="-21" font-family="Helvetica,sans-Serif" font-size="10.00">Equals()</text>
<text text-anchor="start" x="54.06" y="-5.75" font-family="Helvetica,sans-Serif" font-size="10.00">~</text>
<text text-anchor="start" x="64.75" y="-5.75" font-family="Helvetica,sans-Serif" font-size="10.00">SetToPressedKey()</text>
<polygon fill="#666666" stroke="#666666" points="48.62,-169.75 48.62,-169.75 155.62,-169.75 155.62,-169.75 48.62,-169.75"/>
<polygon fill="#666666" stroke="#666666" points="48.62,-154.5 48.62,-154.5 62.75,-154.5 62.75,-154.5 48.62,-154.5"/>
<polygon fill="#666666" stroke="#666666" points="62.75,-154.5 62.75,-154.5 155.62,-154.5 155.62,-154.5 62.75,-154.5"/>
<polygon fill="none" stroke="#666666" points="48.62,0 48.62,-187 155.62,-187 155.62,0 48.62,0"/>
</a>
</g>
</g>
<!-- Node2 -->
<g id="Node000002" class="node">
<title>Node2</title>
<g id="a_Node000002"><a xlink:title=" ">
<polygon fill="white" stroke="none" points="106.25,-272.75 0,-272.75 0,-223 106.25,-223 106.25,-272.75"/>
<text text-anchor="start" x="4" y="-259.25" font-family="Helvetica,sans-Serif" font-size="10.00">IEquatable&lt; KeyBind &gt;</text>
<text text-anchor="start" x="51.62" y="-244" font-family="Helvetica,sans-Serif" font-size="10.00"> </text>
<text text-anchor="start" x="51.62" y="-228.75" font-family="Helvetica,sans-Serif" font-size="10.00"> </text>
<polygon fill="#666666" stroke="#666666" points="0,-255.5 0,-255.5 106.25,-255.5 106.25,-255.5 0,-255.5"/>
<polygon fill="#666666" stroke="#666666" points="0,-240.25 0,-240.25 106.25,-240.25 106.25,-240.25 0,-240.25"/>
<polygon fill="none" stroke="#666666" points="0,-223 0,-272.75 106.25,-272.75 106.25,-223 0,-223"/>
</a>
</g>
</g>
<!-- Node2&#45;&gt;Node1 -->
<g id="edge1_Node000001_Node000002" class="edge">
<title>Node2&#45;&gt;Node1</title>
<g id="a_edge1_Node000001_Node000002"><a xlink:title=" ">
<path fill="none" stroke="#63b8ff" d="M64.25,-212.29C66.76,-204.48 69.54,-195.83 72.42,-186.87"/>
<polygon fill="none" stroke="#63b8ff" points="60.97,-211.03 61.24,-221.63 67.64,-213.18 60.97,-211.03"/>
</a>
</g>
</g>
<!-- Node3 -->
<g id="Node000003" class="node">
<title>Node3</title>
<g id="a_Node000003"><a xlink:title=" ">
<polygon fill="white" stroke="none" points="178,-272.75 124.25,-272.75 124.25,-223 178,-223 178,-272.75"/>
<text text-anchor="start" x="128.25" y="-259.25" font-family="Helvetica,sans-Serif" font-size="10.00">ICloneable</text>
<text text-anchor="start" x="149.62" y="-244" font-family="Helvetica,sans-Serif" font-size="10.00"> </text>
<text text-anchor="start" x="149.62" y="-228.75" font-family="Helvetica,sans-Serif" font-size="10.00"> </text>
<polygon fill="#666666" stroke="#666666" points="124.25,-255.5 124.25,-255.5 178,-255.5 178,-255.5 124.25,-255.5"/>
<polygon fill="#666666" stroke="#666666" points="124.25,-240.25 124.25,-240.25 178,-240.25 178,-240.25 124.25,-240.25"/>
<polygon fill="none" stroke="#666666" points="124.25,-223 124.25,-272.75 178,-272.75 178,-223 124.25,-223"/>
</a>
</g>
</g>
<!-- Node3&#45;&gt;Node1 -->
<g id="edge2_Node000001_Node000003" class="edge">
<title>Node3&#45;&gt;Node1</title>
<g id="a_edge2_Node000001_Node000003"><a xlink:title=" ">
<path fill="none" stroke="#63b8ff" d="M140,-212.29C137.49,-204.48 134.71,-195.83 131.83,-186.87"/>
<polygon fill="none" stroke="#63b8ff" points="136.61,-213.18 143.01,-221.63 143.28,-211.03 136.61,-213.18"/>
</a>
</g>
</g>
</g>
</svg>
</svg>

<style type='text/css'>
<![CDATA[
[data-mouse-over-selected='false'] { opacity: 0.7; }
[data-mouse-over-selected='true']  { opacity: 1.0; }
]]>
</style>
<script type="application/ecmascript"><![CDATA[
document.addEventListener('DOMContentLoaded', (event) => {
  highlightEdges();
  highlightAdjacentNodes();
});
]]></script>
</svg>
