<?xml version="1.0" encoding="UTF-8" standalone="no"?>
<!DOCTYPE svg PUBLIC "-//W3C//DTD SVG 1.1//EN"
 "http://www.w3.org/Graphics/SVG/1.1/DTD/svg11.dtd">
<!-- Generated by graphviz version 12.2.0 (20241103.1931)
 -->
<!-- Title: WKLib.API.UI.WKLibWindow Pages: 1 -->
<svg width="143pt" height="73pt"
 viewBox="0.00 0.00 142.75 73.00" xmlns="http://www.w3.org/2000/svg" xmlns:xlink="http://www.w3.org/1999/xlink">
<g id="graph0" class="graph" transform="scale(1 1) rotate(0) translate(4 69)">
<title>WKLib.API.UI.WKLibWindow</title>
<!-- Node1 -->
<g id="Node000001" class="node">
<title>Node1</title>
<g id="a_Node000001"><a xlink:title=" ">
<polygon fill="#999999" stroke="none" points="134.75,-65 0,-65 0,0 134.75,0 134.75,-65"/>
<text text-anchor="start" x="4" y="-51.5" font-family="Helvetica,sans-Serif" font-size="10.00">WKLib.API.UI.WKLibWindow</text>
<text text-anchor="start" x="18.56" y="-36.25" font-family="Helvetica,sans-Serif" font-size="10.00">+</text>
<text text-anchor="start" x="43.12" y="-36.25" font-family="Helvetica,sans-Serif" font-size="10.00">isOpen</text>
<text text-anchor="start" x="18.56" y="-21" font-family="Helvetica,sans-Serif" font-size="10.00">+</text>
<text text-anchor="start" x="43.12" y="-21" font-family="Helvetica,sans-Serif" font-size="10.00">Draw()</text>
<text text-anchor="start" x="18.56" y="-5.75" font-family="Helvetica,sans-Serif" font-size="10.00">+</text>
<text text-anchor="start" x="43.12" y="-5.75" font-family="Helvetica,sans-Serif" font-size="10.00">HandleInput()</text>
<polygon fill="#666666" stroke="#666666" points="0,-47.75 0,-47.75 134.75,-47.75 134.75,-47.75 0,-47.75"/>
<polygon fill="#666666" stroke="#666666" points="0,-32.5 0,-32.5 41.12,-32.5 41.12,-32.5 0,-32.5"/>
<polygon fill="#666666" stroke="#666666" points="41.12,-32.5 41.12,-32.5 134.75,-32.5 134.75,-32.5 41.12,-32.5"/>
<polygon fill="none" stroke="#666666" points="0,0 0,-65 134.75,-65 134.75,0 0,0"/>
</a>
</g>
</g>
</g>
</svg>
