<?xml version="1.0" encoding="UTF-8" standalone="no"?>
<!DOCTYPE svg PUBLIC "-//W3C//DTD SVG 1.1//EN"
 "http://www.w3.org/Graphics/SVG/1.1/DTD/svg11.dtd">
<!-- Generated by graphviz version 12.2.0 (20241103.1931)
 -->
<!-- Title: WKLib.API.Config.ConfigValueBase Pages: 1 -->
<svg width="170pt" height="104pt"
 viewBox="0.00 0.00 169.75 103.50" xmlns="http://www.w3.org/2000/svg" xmlns:xlink="http://www.w3.org/1999/xlink">
<g id="graph0" class="graph" transform="scale(1 1) rotate(0) translate(4 99.5)">
<title>WKLib.API.Config.ConfigValueBase</title>
<!-- Node1 -->
<g id="Node000001" class="node">
<title>Node1</title>
<g id="a_Node000001"><a xlink:title=" ">
<polygon fill="#999999" stroke="none" points="161.75,-95.5 0,-95.5 0,0 161.75,0 161.75,-95.5"/>
<text text-anchor="start" x="4" y="-82" font-family="Helvetica,sans-Serif" font-size="10.00">WKLib.API.Config.ConfigValueBase</text>
<text text-anchor="start" x="19.31" y="-66.75" font-family="Helvetica,sans-Serif" font-size="10.00">+</text>
<text text-anchor="start" x="44.62" y="-66.75" font-family="Helvetica,sans-Serif" font-size="10.00">Key</text>
<text text-anchor="start" x="19.31" y="-51.5" font-family="Helvetica,sans-Serif" font-size="10.00">+</text>
<text text-anchor="start" x="44.62" y="-51.5" font-family="Helvetica,sans-Serif" font-size="10.00">File</text>
<text text-anchor="start" x="19.31" y="-36.25" font-family="Helvetica,sans-Serif" font-size="10.00">+</text>
<text text-anchor="start" x="44.62" y="-36.25" font-family="Helvetica,sans-Serif" font-size="10.00">GetBoxedValue()</text>
<text text-anchor="start" x="19.31" y="-21" font-family="Helvetica,sans-Serif" font-size="10.00">+</text>
<text text-anchor="start" x="44.62" y="-21" font-family="Helvetica,sans-Serif" font-size="10.00">LoadFromJToken()</text>
<text text-anchor="start" x="19.69" y="-5.75" font-family="Helvetica,sans-Serif" font-size="10.00">#</text>
<text text-anchor="start" x="44.62" y="-5.75" font-family="Helvetica,sans-Serif" font-size="10.00">ConfigValueBase()</text>
<polygon fill="#666666" stroke="#666666" points="0,-78.25 0,-78.25 161.75,-78.25 161.75,-78.25 0,-78.25"/>
<polygon fill="#666666" stroke="#666666" points="0,-47.75 0,-47.75 42.62,-47.75 42.62,-47.75 0,-47.75"/>
<polygon fill="#666666" stroke="#666666" points="42.62,-47.75 42.62,-47.75 161.75,-47.75 161.75,-47.75 42.62,-47.75"/>
<polygon fill="none" stroke="#666666" points="0,0 0,-95.5 161.75,-95.5 161.75,0 0,0"/>
</a>
</g>
</g>
</g>
</svg>
