<?xml version="1.0" encoding="UTF-8" standalone="no"?>
<!DOCTYPE svg PUBLIC "-//W3C//DTD SVG 1.1//EN"
 "http://www.w3.org/Graphics/SVG/1.1/DTD/svg11.dtd">
<!-- Generated by graphviz version 12.2.0 (20241103.1931)
 -->
<!-- Title: WKLib.API.Config.ConfigValue&lt; T &gt; Pages: 1 -->
<svg width="170pt" height="281pt"
 viewBox="0.00 0.00 169.75 280.75" xmlns="http://www.w3.org/2000/svg" xmlns:xlink="http://www.w3.org/1999/xlink">

<svg id="main" version="1.1" xmlns="http://www.w3.org/2000/svg" xmlns:xlink="http://www.w3.org/1999/xlink" xml:space="preserve">

<style type="text/css"><![CDATA[
.node, .edge {opacity: 0.7;}
.node.selected, .edge.selected {opacity: 1;}
.edge:hover path { stroke: red; }
.edge:hover polygon { stroke: red; fill: red; }
]]></style>
<script type="application/ecmascript" xlink:href="svg.min.js"/>
<svg id="graph" class="graph">
<g id="graph0" class="graph" transform="scale(1 1) rotate(0) translate(4 276.75)">
<title>WKLib.API.Config.ConfigValue&lt; T &gt;</title>
<!-- Node1 -->
<g id="Node000001" class="node">
<title>Node1</title>
<g id="a_Node000001"><a xlink:title=" ">
<polygon fill="#999999" stroke="none" points="161.75,-141.25 0,-141.25 0,0 161.75,0 161.75,-141.25"/>
<text text-anchor="start" x="4" y="-127.75" font-family="Helvetica,sans-Serif" font-size="10.00">WKLib.API.Config.ConfigValue&lt; T &gt;</text>
<text text-anchor="start" x="19.31" y="-112.5" font-family="Helvetica,sans-Serif" font-size="10.00">+</text>
<text text-anchor="start" x="44.62" y="-112.5" font-family="Helvetica,sans-Serif" font-size="10.00">Value</text>
<text text-anchor="start" x="19.31" y="-97.25" font-family="Helvetica,sans-Serif" font-size="10.00">+</text>
<text text-anchor="start" x="44.62" y="-97.25" font-family="Helvetica,sans-Serif" font-size="10.00">RefValue</text>
<text text-anchor="start" x="19.31" y="-82" font-family="Helvetica,sans-Serif" font-size="10.00">+</text>
<text text-anchor="start" x="44.62" y="-82" font-family="Helvetica,sans-Serif" font-size="10.00">ConfigValue()</text>
<text text-anchor="start" x="19.31" y="-66.75" font-family="Helvetica,sans-Serif" font-size="10.00">+</text>
<text text-anchor="start" x="44.62" y="-66.75" font-family="Helvetica,sans-Serif" font-size="10.00">ConfigValue()</text>
<text text-anchor="start" x="19.31" y="-51.5" font-family="Helvetica,sans-Serif" font-size="10.00">+</text>
<text text-anchor="start" x="44.62" y="-51.5" font-family="Helvetica,sans-Serif" font-size="10.00">GetBoxedValue()</text>
<text text-anchor="start" x="19.31" y="-36.25" font-family="Helvetica,sans-Serif" font-size="10.00">+</text>
<text text-anchor="start" x="44.62" y="-36.25" font-family="Helvetica,sans-Serif" font-size="10.00">LoadFromJToken()</text>
<text text-anchor="start" x="19.31" y="-21" font-family="Helvetica,sans-Serif" font-size="10.00">+</text>
<text text-anchor="start" x="44.62" y="-21" font-family="Helvetica,sans-Serif" font-size="10.00">operator T()</text>
<text text-anchor="start" x="19.69" y="-5.75" font-family="Helvetica,sans-Serif" font-size="10.00">~</text>
<text text-anchor="start" x="44.62" y="-5.75" font-family="Helvetica,sans-Serif" font-size="10.00">ConfigValue()</text>
<polygon fill="#666666" stroke="#666666" points="0,-124 0,-124 161.75,-124 161.75,-124 0,-124"/>
<polygon fill="#666666" stroke="#666666" points="0,-93.5 0,-93.5 42.62,-93.5 42.62,-93.5 0,-93.5"/>
<polygon fill="#666666" stroke="#666666" points="42.62,-93.5 42.62,-93.5 161.75,-93.5 161.75,-93.5 42.62,-93.5"/>
<polygon fill="none" stroke="#666666" points="0,0 0,-141.25 161.75,-141.25 161.75,0 0,0"/>
</a>
</g>
</g>
<!-- Node2 -->
<g id="Node000002" class="node">
<title>Node2</title>
<g id="a_Node000002"><a xlink:href="classWKLib_1_1API_1_1Config_1_1ConfigValueBase.html" target="_top" xlink:title=" ">
<polygon fill="white" stroke="none" points="131.12,-272.75 30.62,-272.75 30.62,-177.25 131.12,-177.25 131.12,-272.75"/>
<text text-anchor="start" x="43.75" y="-259.25" font-family="Helvetica,sans-Serif" font-size="10.00">ConfigValueBase</text>
<text text-anchor="start" x="34.62" y="-244" font-family="Helvetica,sans-Serif" font-size="10.00">+</text>
<text text-anchor="start" x="44.62" y="-244" font-family="Helvetica,sans-Serif" font-size="10.00">Key</text>
<text text-anchor="start" x="34.62" y="-228.75" font-family="Helvetica,sans-Serif" font-size="10.00">+</text>
<text text-anchor="start" x="44.62" y="-228.75" font-family="Helvetica,sans-Serif" font-size="10.00">File</text>
<text text-anchor="start" x="34.62" y="-213.5" font-family="Helvetica,sans-Serif" font-size="10.00">+</text>
<text text-anchor="start" x="44.62" y="-213.5" font-family="Helvetica,sans-Serif" font-size="10.00">GetBoxedValue()</text>
<text text-anchor="start" x="34.62" y="-198.25" font-family="Helvetica,sans-Serif" font-size="10.00">+</text>
<text text-anchor="start" x="44.62" y="-198.25" font-family="Helvetica,sans-Serif" font-size="10.00">LoadFromJToken()</text>
<text text-anchor="start" x="35" y="-183" font-family="Helvetica,sans-Serif" font-size="10.00">#</text>
<text text-anchor="start" x="44.62" y="-183" font-family="Helvetica,sans-Serif" font-size="10.00">ConfigValueBase()</text>
<polygon fill="#666666" stroke="#666666" points="30.62,-255.5 30.62,-255.5 131.12,-255.5 131.12,-255.5 30.62,-255.5"/>
<polygon fill="#666666" stroke="#666666" points="30.62,-225 30.62,-225 42.62,-225 42.62,-225 30.62,-225"/>
<polygon fill="#666666" stroke="#666666" points="42.62,-225 42.62,-225 131.12,-225 131.12,-225 42.62,-225"/>
<polygon fill="none" stroke="#666666" points="30.62,-177.25 30.62,-272.75 131.12,-272.75 131.12,-177.25 30.62,-177.25"/>
</a>
</g>
</g>
<!-- Node2&#45;&gt;Node1 -->
<g id="edge1_Node000001_Node000002" class="edge">
<title>Node2&#45;&gt;Node1</title>
<g id="a_edge1_Node000001_Node000002"><a xlink:title=" ">
<path fill="none" stroke="#63b8ff" d="M80.88,-166.15C80.88,-157.99 80.88,-149.53 80.88,-141.17"/>
<polygon fill="none" stroke="#63b8ff" points="77.38,-165.94 80.88,-175.94 84.38,-165.94 77.38,-165.94"/>
</a>
</g>
</g>
</g>
</svg>
</svg>

<style type='text/css'>
<![CDATA[
[data-mouse-over-selected='false'] { opacity: 0.7; }
[data-mouse-over-selected='true']  { opacity: 1.0; }
]]>
</style>
<script type="application/ecmascript"><![CDATA[
document.addEventListener('DOMContentLoaded', (event) => {
  highlightEdges();
  highlightAdjacentNodes();
});
]]></script>
</svg>
