<?xml version="1.0" encoding="UTF-8" standalone="no"?>
<!DOCTYPE svg PUBLIC "-//W3C//DTD SVG 1.1//EN"
 "http://www.w3.org/Graphics/SVG/1.1/DTD/svg11.dtd">
<!-- Generated by graphviz version 12.2.0 (20241103.1931)
 -->
<!-- Title: Graphical Class Hierarchy Pages: 1 -->
<svg width="221pt" height="64pt"
 viewBox="0.00 0.00 220.75 64.25" xmlns="http://www.w3.org/2000/svg" xmlns:xlink="http://www.w3.org/1999/xlink">
<g id="graph0" class="graph" transform="scale(1 1) rotate(0) translate(4 60.25)">
<title>Graphical Class Hierarchy</title>
<!-- Node0 -->
<g id="Node000000" class="node">
<title>Node0</title>
<g id="a_Node000000"><a xlink:title=" ">
<polygon fill="#e0e0e0" stroke="#999999" points="61.75,-56.25 0,-56.25 0,-37 61.75,-37 61.75,-56.25"/>
<text text-anchor="middle" x="30.88" y="-42.75" font-family="Helvetica,sans-Serif" font-size="10.00">ICloneable</text>
</a>
</g>
</g>
<!-- Node1 -->
<g id="Node000001" class="node">
<title>Node1</title>
<g id="a_Node000001"><a xlink:href="classWKLib_1_1API_1_1UI_1_1KeyBind.html" target="_top" xlink:title=" ">
<polygon fill="white" stroke="#666666" points="212.75,-37.25 97.75,-37.25 97.75,-18 212.75,-18 212.75,-37.25"/>
<text text-anchor="middle" x="155.25" y="-23.75" font-family="Helvetica,sans-Serif" font-size="10.00">WKLib.API.UI.KeyBind</text>
</a>
</g>
</g>
<!-- Node0&#45;&gt;Node1 -->
<g id="edge2_Node000000_Node000001" class="edge">
<title>Node0&#45;&gt;Node1</title>
<g id="a_edge2_Node000000_Node000001"><a xlink:title=" ">
<path fill="none" stroke="#63b8ff" d="M73.48,-40.17C81.25,-38.96 89.49,-37.68 97.62,-36.42"/>
<polygon fill="#63b8ff" stroke="#63b8ff" points="72.97,-36.7 63.62,-41.7 74.04,-43.62 72.97,-36.7"/>
</a>
</g>
</g>
<!-- Node2 -->
<g id="Node000002" class="node">
<title>Node2</title>
<g id="a_Node000002"><a xlink:title=" ">
<polygon fill="#e0e0e0" stroke="#999999" points="61.75,-19.25 0,-19.25 0,0 61.75,0 61.75,-19.25"/>
<text text-anchor="middle" x="30.88" y="-5.75" font-family="Helvetica,sans-Serif" font-size="10.00">IEquatable</text>
</a>
</g>
</g>
<!-- Node2&#45;&gt;Node1 -->
<g id="edge3_Node000002_Node000001" class="edge">
<title>Node2&#45;&gt;Node1</title>
<g id="a_edge3_Node000002_Node000001"><a xlink:title=" ">
<path fill="none" stroke="#63b8ff" d="M73.48,-15.74C81.25,-16.89 89.49,-18.1 97.62,-19.3"/>
<polygon fill="#63b8ff" stroke="#63b8ff" points="74.03,-12.29 63.62,-14.29 73.01,-19.21 74.03,-12.29"/>
</a>
</g>
</g>
</g>
</svg>
